<?xml version="1.0" standalone="no"?>
<!DOCTYPE svg PUBLIC "-//W3C//DTD SVG 20010904//EN"
 "http://www.w3.org/TR/2001/REC-SVG-20010904/DTD/svg10.dtd">
<svg version="1.0" xmlns="http://www.w3.org/2000/svg"
 width="100.000000pt" height="100.000000pt" viewBox="0 0 100.000000 100.000000"
 preserveAspectRatio="xMidYMid meet">

<g transform="translate(0.000000,100.000000) scale(0.100000,-0.100000)"
fill="#000000" stroke="none">
<path d="M445 905 c-46 -21 -318 -247 -332 -275 -9 -18 -13 -84 -13 -225 0
-175 3 -205 19 -242 26 -57 78 -83 164 -83 87 0 97 12 97 118 0 111 11 122
120 122 110 0 120 -10 120 -124 0 -107 7 -116 96 -116 89 0 139 26 165 86 18
40 20 63 17 253 -3 192 -5 211 -23 231 -33 37 -304 250 -331 260 -34 13 -63
12 -99 -5z m109 -50 c72 -49 286 -226 296 -245 6 -11 10 -97 10 -205 0 -150
-3 -194 -16 -220 -20 -43 -70 -67 -132 -63 l-47 3 -5 85 c-5 88 -17 122 -50
140 -10 5 -61 10 -114 10 -86 0 -98 -2 -123 -24 -26 -22 -28 -31 -33 -117 l-5
-94 -47 -3 c-62 -4 -112 20 -132 63 -13 26 -16 69 -16 212 0 98 3 188 7 201 6
24 283 254 325 272 35 13 42 12 82 -15z"/>
</g>
</svg>
