<svg xmlns="http://www.w3.org/2000/svg" width="71.081" height="34.809" viewBox="0 0 71.081 34.809">
  <g id="eye" transform="translate(-0.001 0)">
    <path id="Path_1840" data-name="Path 1840" d="M70.772,16.089C57.967,2.43,43.551-2.568,27.926,1.234,15.661,4.218,6.07,11.863,1.445,16.154a4.4,4.4,0,0,0-.463,6.027,4.978,4.978,0,0,0,5.935,1.325l1.5-.7c9.093,7.972,18.54,12,28.121,12,.634,0,1.271-.017,1.906-.053,15.627-.87,25.792-12.065,26.217-12.541A1.145,1.145,0,0,0,62.95,20.69c-.1.11-9.949,10.962-24.636,11.78-9.794.543-19.54-3.448-28.939-11.87a1.143,1.143,0,0,0-1.248-.185L5.95,21.431a2.67,2.67,0,0,1-3.183-.684A2.1,2.1,0,0,1,3,17.832c8.313-7.714,37.651-30.523,66.1-.177a1.145,1.145,0,1,0,1.67-1.566Zm0,0" transform="translate(0 0)" fill="#9516d8"/>
    <path id="Path_1841" data-name="Path 1841" d="M112.073,46.358a1.145,1.145,0,0,0,.818-1.945c-6.253-6.393-12.6-9.752-18.634-11.164a29.28,29.28,0,0,0-17.594.774,49.659,49.659,0,0,0-18.129,10.37,1.145,1.145,0,0,0,1.6,1.64A47.616,47.616,0,0,1,72.094,38.14a14.984,14.984,0,1,0,28.278-.273,41.037,41.037,0,0,1,10.882,8.147,1.141,1.141,0,0,0,.818.344Zm-25.8,9.05A12.484,12.484,0,0,1,75.134,37.286a32.066,32.066,0,0,1,7.7-2.213,8.634,8.634,0,0,0-3.418,2.7,2.862,2.862,0,1,1-1.728,5.139s0,.008,0,.012A8.586,8.586,0,1,0,89.227,34.87a25.938,25.938,0,0,1,8,2.086A12.466,12.466,0,0,1,86.272,55.408Zm0,0" transform="translate(-50.109 -27.769)" fill="#9516d8"/>
  </g>
</svg>
