<svg xmlns="http://www.w3.org/2000/svg" width="46.51" height="49.143" viewBox="0 0 46.51 49.143">
  <g id="leg" transform="translate(1325.999 345.143)">
    <path id="Path_1839" data-name="Path 1839" d="M59.852,63.963a2.707,2.707,0,1,0,2.706-2.707A2.71,2.71,0,0,0,59.852,63.963Zm3.659,0a.952.952,0,1,1-.952-.952A.953.953,0,0,1,63.51,63.963ZM51.9,58.183V56.428a.878.878,0,0,1,1.755,0v1.755a.878.878,0,0,1-1.755,0Zm1.755,3.51v1.755a.878.878,0,0,1-1.755,0V61.694a.878.878,0,1,1,1.755,0Zm-5.265-1.755a.877.877,0,0,1,.878-.878h1.755a.878.878,0,0,1,0,1.755H49.266A.877.877,0,0,1,48.389,59.938Zm5.265,0a.877.877,0,0,1,.878-.878h1.755a.878.878,0,1,1,0,1.755H54.531A.877.877,0,0,1,53.654,59.938ZM58.813,47.4l.62-.62-.62-.62a.877.877,0,0,1,1.241-1.241l.62.62.62-.62a.877.877,0,1,1,1.241,1.241l-.62.62.62.62a.877.877,0,1,1-1.241,1.241l-.62-.62-.62.62A.877.877,0,0,1,58.813,47.4ZM89.634,38a.877.877,0,0,0-.878.878v8.683L86.475,58.279a35.183,35.183,0,0,0-.328,4.292H72.96V58.143l-.878-19.306A.9.9,0,0,0,71.165,38a.878.878,0,0,0-.837.917L71.2,58.183v4.388c0,.232-.009.462-.021.69a.805.805,0,0,0-.032.118C70.7,69.124,65.374,74.336,58.767,75.5a.861.861,0,0,0-.428.223c-.1,0-.2.009-.3.009H56.287a.876.876,0,0,0-.153.014l-9.813,1.743a2.407,2.407,0,0,0-2.056,1.31.874.874,0,0,0-.264.627V79.9a.878.878,0,0,0,.032.234,7.724,7.724,0,0,0,7.683,7.013H79.444a10.2,10.2,0,0,0,10.189-10.19v-.341a.869.869,0,0,0-.045-.277A33.278,33.278,0,0,1,87.878,65.8V63.242a33.5,33.5,0,0,1,.325-4.656l2.289-10.75a.923.923,0,0,0,.019-.182V38.877A.877.877,0,0,0,89.634,38ZM86.9,73.1H75.536l-1.679-3.51H86.334A34.942,34.942,0,0,0,86.9,73.1Zm-.774-8.776V65.8c0,.682.027,1.362.066,2.04H73.017l-.7-1.464a12.467,12.467,0,0,0,.492-2.046ZM64.185,75.489v9.9H59.8v-8.3A18.008,18.008,0,0,0,64.185,75.489ZM45.766,79.78a.651.651,0,0,1,.64-.535.876.876,0,0,0,.153-.014l9.8-1.742h1.678v7.9H51.715A5.967,5.967,0,0,1,45.766,79.78Zm27.753,5.608L67.765,73.058A16.075,16.075,0,0,0,71.4,68.525l8.064,16.861H73.519Zm7.79-.215-2.415-5.051h8.362A8.46,8.46,0,0,1,81.309,85.173Z" transform="translate(-1370 -383.143)" fill="#9516d8"/>
  </g>
</svg>
