<svg xmlns="http://www.w3.org/2000/svg" width="50.141" height="46.847" viewBox="0 0 50.141 46.847">
  <g id="scalpel" transform="translate(-4.815 -8.713)">
    <path id="Path_1844" data-name="Path 1844" d="M53.7,9.97a4.435,4.435,0,0,0-6.263.075L20.079,37.4a.74.74,0,0,0,.278,1.223l.393.138L5.037,54.289a.741.741,0,0,0,.521,1.271H5.6l1.919-.1a13.9,13.9,0,0,0,9.1-4.058l1.6-1.6A3.916,3.916,0,0,0,19.365,47.2a2.437,2.437,0,0,1,.7-1.6l5.354-5.194,2.539.893a.741.741,0,0,0,.77-.175L53.623,16.233A4.434,4.434,0,0,0,53.7,9.97ZM19.027,44.538a3.921,3.921,0,0,0-1.144,2.594,2.438,2.438,0,0,1-.711,1.613l-1.6,1.6a12.423,12.423,0,0,1-8.1,3.625L22.3,39.31l1.553.546ZM52.574,15.185,28.013,39.746,21.96,37.617,48.484,11.094a2.894,2.894,0,1,1,4.09,4.091Z" transform="translate(0)" fill="#9516d8"/>
    <path id="Path_1845" data-name="Path 1845" d="M105.931,17.637a2.012,2.012,0,1,0,2.846,0,2.012,2.012,0,0,0-2.846,0Zm1.8,1.8a.542.542,0,0,1-.749,0,.53.53,0,1,1,.749,0Z" transform="translate(-57.942 -4.805)" fill="#9516d8"/>
    <path id="Path_1846" data-name="Path 1846" d="M71.419,54.211a.741.741,0,1,0-1.048,1.048l1.8,1.8a.741.741,0,0,0,1.048-1.048Z" transform="translate(-37.66 -26.099)" fill="#9516d8"/>
    <path id="Path_1847" data-name="Path 1847" d="M66.645,58.984A.741.741,0,1,0,65.6,60.032l1.8,1.8a.741.741,0,0,0,1.048-1.048Z" transform="translate(-34.908 -28.85)" fill="#9516d8"/>
    <path id="Path_1848" data-name="Path 1848" d="M61.873,63.757A.741.741,0,0,0,60.825,64.8l1.8,1.8a.741.741,0,1,0,1.048-1.046Z" transform="translate(-32.158 -31.601)" fill="#9516d8"/>
  </g>
</svg>
