<svg xmlns="http://www.w3.org/2000/svg" width="48.575" height="46.45" viewBox="0 0 48.575 46.45">
  <g id="tooth" transform="translate(0 -8.915)">
    <path id="Path_1838" data-name="Path 1838" d="M44.859,13.288A12.931,12.931,0,0,0,35.1,8.915c-2.952,0-6.136,1.756-8.463,3.04A13.752,13.752,0,0,1,24.287,13.1a13.625,13.625,0,0,1-2.338-1.146c-2.32-1.284-5.5-3.042-8.472-3.042a12.931,12.931,0,0,0-9.762,4.373A14.874,14.874,0,0,0,0,23.232C0,28.56,1.913,36.136,5.118,43.5a49.126,49.126,0,0,0,4.389,8.187c1.72,2.475,3.2,3.678,4.513,3.678.584,0,1.654-.248,2.255-1.908.583-1.613,1.108-3.465,1.665-5.429,1.473-5.2,3.305-11.667,6.256-11.667h.186c1.312,0,2.486,1.124,3.59,3.435A52.8,52.8,0,0,1,30.7,48.078c.532,1.949,1.035,3.79,1.6,5.374.588,1.65,1.646,1.9,2.225,1.9,1.31,0,2.785-1.222,4.509-3.734a50.838,50.838,0,0,0,4.4-8.268c3.221-7.423,5.144-14.942,5.144-20.115a14.873,14.873,0,0,0-3.716-9.944M34.187,17.113a32.4,32.4,0,0,1-5.857-.883,7.193,7.193,0,0,1-2.733-1.2,9.654,9.654,0,0,1,2-1.343c2.137-1.179,5.062-2.793,7.5-2.793,7.2,0,11.495,6.271,11.495,12.334,0,4.842-1.908,12.247-4.98,19.326A49.577,49.577,0,0,1,37.4,50.493c-1.559,2.273-2.568,2.934-2.874,2.873-.188-.037-.211-.17-.357-.58-.54-1.515-1.033-3.321-1.555-5.233a54.068,54.068,0,0,0-2.852-8.612c-1.466-3.071-3.226-4.564-5.379-4.564h-.186c-2.074,0-3.793,1.481-5.255,4.527a56.587,56.587,0,0,0-2.909,8.583c-.546,1.927-1.061,3.747-1.621,5.3-.124.342-.162.565-.39.6-.179.027-.943-.032-2.885-2.827a47.853,47.853,0,0,1-4.2-7.846c-3.055-7.02-4.953-14.483-4.953-19.476,0-6.063,4.3-12.334,11.495-12.334a13.3,13.3,0,0,1,6.575,2.28c.329.209.793.566,1.242.911.179.138.355.273.52.4a22.46,22.46,0,0,0,2.074,1.4,10.943,10.943,0,0,0,1.27.672,14.442,14.442,0,0,0,5.674,1.152,14.3,14.3,0,0,0,3.361-.36s.3-.08.292-.158S34.187,17.113,34.187,17.113Z" transform="translate(0)" fill="#9516d8"/>
  </g>
</svg>
