<svg xmlns="http://www.w3.org/2000/svg" width="26.71" height="24.796" viewBox="0 0 26.71 24.796">
  <g id="headset_1_" data-name="headset (1)" transform="translate(0 -18.348)">
    <g id="Group_2972" data-name="Group 2972" transform="translate(0 18.348)">
      <path id="Path_2018" data-name="Path 2018" d="M24.574,28.178a4.635,4.635,0,0,0-.917-.456,10.348,10.348,0,0,0-20.6,0A4.654,4.654,0,0,0,0,32.091v1.5a4.658,4.658,0,0,0,4.653,4.653H5.7A1.48,1.48,0,0,0,7.181,36.77V28.917A1.48,1.48,0,0,0,5.7,27.438H4.574a8.87,8.87,0,0,1,17.561,0H21.008a1.48,1.48,0,0,0-1.478,1.478V36.77a1.48,1.48,0,0,0,1.478,1.478H22a4.89,4.89,0,0,1-4.657,3.417.739.739,0,1,0,0,1.478,6.37,6.37,0,0,0,6.245-5.155,4.661,4.661,0,0,0,3.122-4.394v-1.5A4.637,4.637,0,0,0,24.574,28.178Zm-19.921.739H5.7V36.77H4.653a3.178,3.178,0,0,1-3.175-3.175v-1.5a3.174,3.174,0,0,1,3.175-3.175Zm20.579,4.678a3.178,3.178,0,0,1-3.175,3.175H21.008V28.917h1.049a3.174,3.174,0,0,1,3.175,3.175Z" transform="translate(0 -18.348)" fill="#fff"/>
    </g>
  </g>
</svg>
