<svg xmlns="http://www.w3.org/2000/svg" width="26" height="26" viewBox="0 0 26 26">
  <g id="Group_2645" data-name="Group 2645" transform="translate(-1849 -686)">
    <g id="Group_2649" data-name="Group 2649" transform="translate(-1 62)">
      <path id="Path_1879" data-name="Path 1879" d="M5.771,6.385A1.385,1.385,0,1,1,4.385,5,1.385,1.385,0,0,1,5.771,6.385Zm5.541,0A1.385,1.385,0,1,1,9.926,5,1.385,1.385,0,0,1,11.312,6.385Zm5.541,0A1.385,1.385,0,1,1,15.467,5,1.385,1.385,0,0,1,16.853,6.385Z" transform="translate(1853.2 630.233)" fill="#9516d8"/>
      <path id="Path_1878" data-name="Path 1878" d="M13,0A12.993,12.993,0,0,0,0,13V24.984A1.016,1.016,0,0,0,1.016,26H13A12.993,12.993,0,0,0,26,13a13.552,13.552,0,0,0-.55-3.756A12.907,12.907,0,0,0,13,0Zm0,23.969H2.031V13A10.969,10.969,0,1,1,13,23.969Z" transform="translate(1876 624) rotate(90)" fill="#9516d8"/>
    </g>
  </g>
</svg>
