<svg id="icon-Bold-Emergency" xmlns="http://www.w3.org/2000/svg" width="18" height="18" viewBox="0 0 18 18">
  <rect id="bg" width="18" height="18" fill="#e5e5e5" opacity="0"/>
  <g id="path" transform="translate(2 2)">
    <path id="path-2" data-name="path" d="M1415.2,198.718l-1.357-2.422a.709.709,0,0,0-.179-.21.587.587,0,0,0-.241-.119.874.874,0,0,0-.269-.021.82.82,0,0,0-.255.091l-2.218,1.323V194.7a.723.723,0,0,0-.2-.493.706.706,0,0,0-.489-.207H1407.3a.7.7,0,0,0-.489.2.732.732,0,0,0-.152.228.719.719,0,0,0-.048.269v2.66l-2.225-1.323a.818.818,0,0,0-.255-.091.872.872,0,0,0-.269.021.7.7,0,0,0-.248.119.869.869,0,0,0-.172.21l-1.357,2.422a.751.751,0,0,0-.069.532.7.7,0,0,0,.324.42l2.232,1.33-2.232,1.33a.7.7,0,0,0-.324.42.751.751,0,0,0,.069.532l1.357,2.422a.664.664,0,0,0,.172.2.589.589,0,0,0,.248.126.683.683,0,0,0,.269.014.634.634,0,0,0,.255-.084l2.218-1.323v2.66a.739.739,0,0,0,.2.5.722.722,0,0,0,.489.2h2.686a.7.7,0,0,0,.489-.2.74.74,0,0,0,.151-.228.712.712,0,0,0,.048-.269v-2.66l2.219,1.323a.9.9,0,0,0,.255.091.919.919,0,0,0,.276-.021.587.587,0,0,0,.241-.119.984.984,0,0,0,.179-.21l1.35-2.422a.716.716,0,0,0,.069-.532.726.726,0,0,0-.317-.42l-2.232-1.33,2.232-1.33a.68.68,0,0,0,.2-.177.647.647,0,0,0,.117-.243A.715.715,0,0,0,1415.2,198.718Z" transform="translate(-1402 -194)" fill="none" stroke="#9516d8" stroke-linecap="round" stroke-linejoin="round" stroke-width="1.5"/>
  </g>
</svg>
