<svg xmlns="http://www.w3.org/2000/svg" width="26" height="26" viewBox="0 0 26 26">
  <g id="help_1_" data-name="help (1)" transform="translate(26) rotate(90)">
    <g id="Group_2644" data-name="Group 2644">
      <g id="Group_2643" data-name="Group 2643">
        <path id="Path_1875" data-name="Path 1875" d="M13,0A12.993,12.993,0,0,0,0,13V24.984A1.016,1.016,0,0,0,1.016,26H13A12.993,12.993,0,0,0,26,13a13.552,13.552,0,0,0-.55-3.756A12.907,12.907,0,0,0,13,0Zm0,23.969H2.031V13A10.969,10.969,0,1,1,13,23.969Z" fill="#9516d8"/>
      </g>
    </g>
    <path id="Path_1876" data-name="Path 1876" d="M223.012,343.22a1.363,1.363,0,0,0,0,2.726,1.363,1.363,0,1,0,0-2.726Z" transform="translate(-322.84 242.307) rotate(-91)" fill="#9516d8"/>
    <path id="Path_1877" data-name="Path 1877" d="M187.509,140c-2.39,0-3.487,1.416-3.487,2.372a1.015,1.015,0,0,0,1.062,1.009c.956,0,.566-1.363,2.372-1.363.885,0,1.593.389,1.593,1.2,0,.956-.991,1.5-1.575,2a3.24,3.24,0,0,0-1.186,2.691c0,.92.248,1.186.974,1.186.867,0,1.044-.389,1.044-.726a2.223,2.223,0,0,1,.991-2.213c.478-.372,1.983-1.575,1.983-3.239S189.775,140,187.509,140Z" transform="translate(-130.595 203.212) rotate(-91)" fill="#9516d8"/>
  </g>
</svg>
